<mxfile host="app.diagrams.net" modified="2024-06-12T14:36:24.816Z" agent="Mozilla/5.0 (Windows NT 10.0; Win64; x64; rv:126.0) Gecko/20100101 Firefox/126.0" etag="hpyYYOwNh6IYQ0XIxhXe" version="24.5.3" type="google">
  <diagram name="Page-1" id="oLcbjpjZ1H2D2bKQeuFw">
    <mxGraphModel grid="1" page="1" gridSize="10" guides="1" tooltips="1" connect="1" arrows="1" fold="1" pageScale="1" pageWidth="850" pageHeight="1100" math="0" shadow="0">
      <root>
        <mxCell id="0" />
        <mxCell id="1" parent="0" />
        <mxCell id="ftg2zmRQNGyVzapObcbN-1" style="edgeStyle=orthogonalEdgeStyle;rounded=0;orthogonalLoop=1;jettySize=auto;html=1;entryX=0;entryY=0.5;entryDx=0;entryDy=0;" edge="1" parent="1" source="ftg2zmRQNGyVzapObcbN-2" target="ftg2zmRQNGyVzapObcbN-9">
          <mxGeometry relative="1" as="geometry" />
        </mxCell>
        <mxCell id="ftg2zmRQNGyVzapObcbN-2" value="&lt;div&gt;&lt;font face=&quot;Times New Roman&quot;&gt;Филтрация&lt;/font&gt;&lt;/div&gt;" style="rounded=1;whiteSpace=wrap;html=1;fontSize=14;fillColor=#fff2cc;strokeColor=#d6b656;" vertex="1" parent="1">
          <mxGeometry x="210" y="180" width="120" height="60" as="geometry" />
        </mxCell>
        <mxCell id="ftg2zmRQNGyVzapObcbN-6" value="&lt;font face=&quot;Times New Roman&quot;&gt;Термодвойка&lt;/font&gt;" style="text;html=1;strokeColor=none;fillColor=none;align=center;verticalAlign=middle;whiteSpace=wrap;rounded=0;fontSize=14;" vertex="1" parent="1">
          <mxGeometry x="30" y="195" width="60" height="30" as="geometry" />
        </mxCell>
        <mxCell id="ftg2zmRQNGyVzapObcbN-7" value="Захранване" style="rounded=1;whiteSpace=wrap;html=1;fontFamily=Times New Roman;fontSize=14;fillColor=#f8cecc;strokeColor=#b85450;" vertex="1" parent="1">
          <mxGeometry x="530" y="180" width="120" height="60" as="geometry" />
        </mxCell>
        <mxCell id="ftg2zmRQNGyVzapObcbN-8" style="edgeStyle=orthogonalEdgeStyle;rounded=0;orthogonalLoop=1;jettySize=auto;html=1;entryX=0.5;entryY=0;entryDx=0;entryDy=0;startArrow=classic;startFill=1;" edge="1" parent="1" source="ftg2zmRQNGyVzapObcbN-9" target="ftg2zmRQNGyVzapObcbN-12">
          <mxGeometry relative="1" as="geometry" />
        </mxCell>
        <mxCell id="ftg2zmRQNGyVzapObcbN-9" value="&lt;div&gt;&lt;font face=&quot;Times New Roman&quot;&gt;Съгласуване&lt;/font&gt;&lt;/div&gt;" style="rounded=1;whiteSpace=wrap;html=1;fontSize=14;fillColor=#f5f5f5;fontColor=#333333;strokeColor=#666666;" vertex="1" parent="1">
          <mxGeometry x="370" y="180" width="120" height="60" as="geometry" />
        </mxCell>
        <mxCell id="ftg2zmRQNGyVzapObcbN-12" value="&lt;div&gt;&lt;font face=&quot;Times New Roman&quot;&gt;Микроконтролер&lt;/font&gt;&lt;/div&gt;" style="rounded=1;whiteSpace=wrap;html=1;fontSize=14;fillColor=#dae8fc;strokeColor=#6c8ebf;" vertex="1" parent="1">
          <mxGeometry x="370" y="280" width="120" height="60" as="geometry" />
        </mxCell>
        <mxCell id="ftg2zmRQNGyVzapObcbN-23" style="edgeStyle=orthogonalEdgeStyle;rounded=0;orthogonalLoop=1;jettySize=auto;html=1;entryX=1;entryY=0.5;entryDx=0;entryDy=0;startArrow=classic;startFill=1;" edge="1" parent="1" source="ftg2zmRQNGyVzapObcbN-16" target="ftg2zmRQNGyVzapObcbN-12">
          <mxGeometry relative="1" as="geometry" />
        </mxCell>
        <mxCell id="ftg2zmRQNGyVzapObcbN-25" style="edgeStyle=orthogonalEdgeStyle;rounded=0;orthogonalLoop=1;jettySize=auto;html=1;endArrow=none;endFill=0;startArrow=none;startFill=0;" edge="1" parent="1" source="ftg2zmRQNGyVzapObcbN-16" target="ftg2zmRQNGyVzapObcbN-24">
          <mxGeometry relative="1" as="geometry">
            <Array as="points">
              <mxPoint x="590" y="390" />
            </Array>
          </mxGeometry>
        </mxCell>
        <mxCell id="ftg2zmRQNGyVzapObcbN-16" value="&lt;div&gt;Външни връзки&lt;/div&gt;" style="rounded=1;whiteSpace=wrap;html=1;fontFamily=Times New Roman;fontSize=14;fillColor=#d5e8d4;strokeColor=#82b366;" vertex="1" parent="1">
          <mxGeometry x="530" y="280" width="120" height="60" as="geometry" />
        </mxCell>
        <mxCell id="ftg2zmRQNGyVzapObcbN-18" style="edgeStyle=orthogonalEdgeStyle;rounded=0;orthogonalLoop=1;jettySize=auto;html=1;exitX=0.125;exitY=0;exitDx=0;exitDy=0;exitPerimeter=0;entryX=0;entryY=0.25;entryDx=0;entryDy=0;endArrow=none;endFill=0;" edge="1" parent="1" source="ftg2zmRQNGyVzapObcbN-17" target="ftg2zmRQNGyVzapObcbN-2">
          <mxGeometry relative="1" as="geometry">
            <Array as="points">
              <mxPoint x="200" y="180" />
              <mxPoint x="200" y="195" />
            </Array>
          </mxGeometry>
        </mxCell>
        <mxCell id="ftg2zmRQNGyVzapObcbN-19" style="edgeStyle=orthogonalEdgeStyle;rounded=0;orthogonalLoop=1;jettySize=auto;html=1;exitX=0.875;exitY=0;exitDx=0;exitDy=0;exitPerimeter=0;entryX=0;entryY=0.75;entryDx=0;entryDy=0;endArrow=none;endFill=0;" edge="1" parent="1" source="ftg2zmRQNGyVzapObcbN-17" target="ftg2zmRQNGyVzapObcbN-2">
          <mxGeometry relative="1" as="geometry">
            <Array as="points">
              <mxPoint x="200" y="240" />
              <mxPoint x="200" y="225" />
            </Array>
          </mxGeometry>
        </mxCell>
        <mxCell id="ftg2zmRQNGyVzapObcbN-17" value="" style="pointerEvents=1;verticalLabelPosition=bottom;shadow=0;dashed=0;align=center;html=1;verticalAlign=top;shape=mxgraph.electrical.miscellaneous.thermocouple;direction=south;" vertex="1" parent="1">
          <mxGeometry x="110" y="170" width="81" height="80" as="geometry" />
        </mxCell>
        <mxCell id="ftg2zmRQNGyVzapObcbN-22" style="edgeStyle=orthogonalEdgeStyle;rounded=0;orthogonalLoop=1;jettySize=auto;html=1;entryX=0;entryY=0.5;entryDx=0;entryDy=0;startArrow=classic;startFill=1;" edge="1" parent="1" source="ftg2zmRQNGyVzapObcbN-20" target="ftg2zmRQNGyVzapObcbN-12">
          <mxGeometry relative="1" as="geometry" />
        </mxCell>
        <mxCell id="ftg2zmRQNGyVzapObcbN-20" value="&lt;div&gt;Температурен сензор за компенсация&lt;/div&gt;" style="rounded=1;whiteSpace=wrap;html=1;fontSize=14;fillColor=#ffe6cc;strokeColor=#d79b00;fontFamily=Times New Roman;" vertex="1" parent="1">
          <mxGeometry x="210" y="280" width="120" height="60" as="geometry" />
        </mxCell>
        <mxCell id="ftg2zmRQNGyVzapObcbN-24" value="" style="fontColor=#0066CC;verticalAlign=top;verticalLabelPosition=bottom;labelPosition=center;align=center;html=1;outlineConnect=0;fillColor=#CCCCCC;strokeColor=#6881B3;gradientColor=none;gradientDirection=north;strokeWidth=2;shape=mxgraph.networks.pc;" vertex="1" parent="1">
          <mxGeometry x="390" y="365" width="80" height="55" as="geometry" />
        </mxCell>
        <mxCell id="ftg2zmRQNGyVzapObcbN-26" value="&lt;font face=&quot;Times New Roman&quot;&gt;Компютър с управляващ софтуер&lt;/font&gt;" style="text;html=1;strokeColor=none;fillColor=none;align=center;verticalAlign=middle;whiteSpace=wrap;rounded=0;fontSize=14;" vertex="1" parent="1">
          <mxGeometry x="300" y="377.5" width="80" height="30" as="geometry" />
        </mxCell>
        <mxCell id="ftg2zmRQNGyVzapObcbN-29" value="" style="rounded=1;whiteSpace=wrap;html=1;fillColor=none;strokeColor=#FF0000;dashed=1;align=left;verticalAlign=top;strokeWidth=2;fontColor=#ff0000;" vertex="1" parent="1">
          <mxGeometry x="10" y="160" width="490" height="100" as="geometry" />
        </mxCell>
        <mxCell id="ftg2zmRQNGyVzapObcbN-30" value="&lt;div style=&quot;font-size: 14px;&quot;&gt;&lt;font style=&quot;font-size: 16px;&quot; face=&quot;Times New Roman&quot;&gt;x 4&lt;/font&gt;&lt;/div&gt;" style="text;html=1;align=center;verticalAlign=middle;resizable=0;points=[];autosize=1;strokeColor=none;fillColor=none;fontFamily=Tahoma;fontSize=14;fontColor=#FF0000;fontStyle=1" vertex="1" parent="1">
          <mxGeometry x="10" y="160" width="40" height="30" as="geometry" />
        </mxCell>
      </root>
    </mxGraphModel>
  </diagram>
</mxfile>
